HIERARCHY
ROOT Hips
{
	OFFSET -0.001795 -0.223333 0.028219
	CHANNELS 6 Xposition Yposition Zposition Zrotation Yrotation Xrotation 
	JOINT LeftUpLeg
	{
		OFFSET 0.069520 -0.091406 -0.006815
		CHANNELS 3 Zrotation Yrotation Xrotation
		JOINT LeftLeg
		{
			OFFSET 0.034277 -0.375199 -0.004496
			CHANNELS 3 Zrotation Yrotation Xrotation
			JOINT LeftFoot
			{
				OFFSET -0.013596 -0.397961 -0.043693
				CHANNELS 3 Zrotation Yrotation Xrotation
				JOINT LeftToe
				{
					OFFSET 0.026358 -0.055791 0.119288
					CHANNELS 3 Zrotation Yrotation Xrotation
					End Site
					{
						OFFSET 0.000000 0.000000 0.000000
					}
				}
			}
		}
	}
	JOINT RightUpLeg
	{
		OFFSET -0.067670 -0.090522 -0.004320
		CHANNELS 3 Zrotation Yrotation Xrotation
		JOINT RightLeg
		{
			OFFSET -0.038290 -0.382569 -0.008850
			CHANNELS 3 Zrotation Yrotation Xrotation
			JOINT RightFoot
			{
				OFFSET 0.015774 -0.398415 -0.042312
				CHANNELS 3 Zrotation Yrotation Xrotation
				JOINT RightToe
				{
					OFFSET -0.025372 -0.048144 0.123348
					CHANNELS 3 Zrotation Yrotation Xrotation
					End Site
					{
						OFFSET 0.000000 0.000000 0.000000
					}
				}
			}
		}
	}
	JOINT Spine
	{
		OFFSET -0.002533 0.108963 -0.026696
		CHANNELS 3 Zrotation Yrotation Xrotation
		JOINT Spine1
		{
			OFFSET 0.005487 0.135180 0.001092
			CHANNELS 3 Zrotation Yrotation Xrotation
			JOINT Spine2
			{
				OFFSET 0.001457 0.052922 0.025425
				CHANNELS 3 Zrotation Yrotation Xrotation
				JOINT Neck
				{
					OFFSET -0.002778 0.213870 -0.042857
					CHANNELS 3 Zrotation Yrotation Xrotation
					JOINT Head
					{
						OFFSET 0.005152 0.064970 0.051349
						CHANNELS 3 Zrotation Yrotation Xrotation
						End Site
						{
							OFFSET 0.000000 0.000000 0.000000
						}
					}
				}
				JOINT LeftShoulder
				{
					OFFSET 0.078845 0.121749 -0.034090
					CHANNELS 3 Zrotation Yrotation Xrotation
					JOINT LeftArm
					{
						OFFSET 0.090977 0.030469 -0.008868
						CHANNELS 3 Zrotation Yrotation Xrotation
						JOINT LeftForeArm
						{
							OFFSET 0.259612 -0.012772 -0.027456
							CHANNELS 3 Zrotation Yrotation Xrotation
							JOINT LeftHand
							{
								OFFSET 0.249234 0.008986 -0.001171
								CHANNELS 3 Zrotation Yrotation Xrotation
								End Site
								{
									OFFSET 0.000000 0.000000 0.000000
								}
							}
						}
					}
				}
				JOINT RightShoulder
				{
					OFFSET -0.081759 0.118833 -0.038615
					CHANNELS 3 Zrotation Yrotation Xrotation
					JOINT RightArm
					{
						OFFSET -0.096012 0.032551 -0.009143
						CHANNELS 3 Zrotation Yrotation Xrotation
						JOINT RightForeArm
						{
							OFFSET -0.253742 -0.013329 -0.021401
							CHANNELS 3 Zrotation Yrotation Xrotation
							JOINT RightHand
							{
								OFFSET -0.255298 0.007772 -0.005559
								CHANNELS 3 Zrotation Yrotation Xrotation
								End Site
								{
									OFFSET 0.000000 0.000000 0.000000
								}
							}
						}
					}
				}
			}
		}
	}
}
MOTION
Frames: 10
Frame Time: 0.050000
-0.059620 0.940618 -0.062658 -4.251536 28.875054 3.757657 7.132795 -0.935733 -9.804789 0.586878 -0.009530 -1.209820 -1.092381 4.435739 9.095166 0.000000 0.000000 0.000000 -1.505117 0.620399 -9.010825 4.913699 -0.843838 -5.576814 1.920812 2.004636 15.732755 0.000000 0.000000 0.000000 0.734179 -1.526664 16.225969 -5.864219 2.120165 4.682079 -8.521585 5.465961 2.803515 7.928996 -0.846235 -19.389428 0.000000 0.000000 0.000000 -30.343239 -37.079685 13.043408 -31.641373 -22.603085 4.369989 1.811491 -53.380577 -1.086783 0.000000 0.000000 0.000000 17.572333 26.367800 18.838702 39.542317 36.794222 7.248842 -17.262736 46.644835 -3.771613 0.000000 0.000000 0.000000 
-0.059397 0.940801 -0.063065 -4.064651 29.338432 3.633127 6.871279 -0.920785 -9.601953 0.638160 -0.006965 -1.373242 -1.383835 4.053968 9.182983 0.000000 0.000000 0.000000 -1.909686 0.560771 -8.844987 5.228822 -0.893546 -5.411340 1.724026 1.715262 15.684453 0.000000 0.000000 0.000000 0.753917 -1.585117 16.540169 -5.874153 2.088933 4.940370 -8.539619 5.313643 2.631569 8.000854 -0.900390 -19.343419 0.000000 0.000000 0.000000 -30.378677 -37.032214 12.983205 -32.462741 -22.379389 4.460337 2.884331 -55.459865 -1.862363 0.000000 0.000000 0.000000 16.679835 26.317554 18.380865 38.980526 37.099746 7.338563 -17.671370 47.500418 -3.991843 0.000000 0.000000 0.000000 
-0.058751 0.940418 -0.063259 -3.772194 29.489125 3.694448 6.551807 -0.912619 -9.586003 0.605854 -0.008596 -1.287874 -1.439333 3.904779 9.068997 0.000000 0.000000 0.000000 -2.310513 0.514132 -8.896520 5.356337 -0.912103 -5.118156 1.628959 1.604535 15.392081 0.000000 0.000000 0.000000 0.659463 -1.605185 16.778196 -5.911641 2.145069 4.468276 -8.400632 5.346531 3.033562 8.095257 -0.961018 -19.277332 0.000000 0.000000 0.000000 -30.941731 -36.461807 12.550991 -32.898932 -21.677766 4.374801 1.920179 -57.515042 -1.498090 0.000000 0.000000 0.000000 16.189879 26.035439 18.012074 38.916443 36.858331 7.269366 -17.709420 49.734882 -4.116509 0.000000 0.000000 0.000000 
-0.057860 0.940245 -0.063413 -3.508644 29.688753 3.942305 6.228342 -0.917905 -9.727704 0.618767 -0.008597 -1.310683 -1.539327 3.753122 9.055017 0.000000 0.000000 0.000000 -2.947975 0.439569 -8.969788 5.927388 -0.999625 -5.153634 1.574491 1.511184 15.392375 0.000000 0.000000 0.000000 0.663621 -1.584559 16.610993 -5.995038 2.162189 4.561694 -8.320212 5.222011 2.952769 8.105809 -0.952901 -19.377827 0.000000 0.000000 0.000000 -31.148204 -35.934649 12.203355 -33.133481 -20.813792 4.195740 0.662414 -59.616394 -0.906388 0.000000 0.000000 0.000000 15.972316 25.839781 17.781578 38.811536 36.407405 7.103016 -16.255630 51.929899 -3.573278 0.000000 0.000000 0.000000 
-0.056827 0.939651 -0.063531 -3.403842 29.427470 3.792248 5.994228 -0.885375 -9.406966 0.734295 -0.011947 -1.340107 -1.363126 3.863838 8.808880 0.000000 0.000000 0.000000 -3.364323 0.383777 -8.708976 6.418026 -1.071262 -5.220869 1.732912 1.747783 15.294152 0.000000 0.000000 0.000000 0.710550 -1.593354 16.669861 -6.092366 2.213325 4.637179 -8.115345 5.500080 2.853577 8.288755 -1.138194 -18.965503 0.000000 0.000000 0.000000 -31.847779 -35.004319 11.457033 -32.949775 -19.141495 3.837265 -1.798768 -61.513023 0.476607 0.000000 0.000000 0.000000 16.091157 25.754521 17.798345 39.744273 36.196240 7.275193 -14.931676 54.366691 -2.992732 0.000000 0.000000 0.000000 
-0.055887 0.939038 -0.063614 -3.115394 29.183132 3.650750 5.764264 -0.853434 -9.092610 0.530053 -0.006961 -1.215756 -1.191140 3.971574 8.570748 0.000000 0.000000 0.000000 -3.832122 0.320185 -8.427424 6.698271 -1.111983 -5.164463 1.857679 1.959052 15.041783 0.000000 0.000000 0.000000 0.662034 -1.563593 16.586010 -6.211349 2.233448 5.180158 -7.720308 5.771442 2.548662 8.477401 -1.302587 -18.719914 0.000000 0.000000 0.000000 -32.376239 -34.047820 10.728693 -32.467195 -17.616945 3.465571 -4.535240 -62.932078 2.177364 0.000000 0.000000 0.000000 16.465159 25.665776 17.878820 40.262468 35.809718 7.251309 -12.696177 56.685022 -1.907769 0.000000 0.000000 0.000000 
-0.055098 0.938466 -0.063754 -3.098007 28.878136 3.443414 5.686337 -0.811208 -8.558452 0.542272 0.005331 -1.604202 -1.019775 4.126192 8.412586 0.000000 0.000000 0.000000 -3.998293 0.289640 -7.961692 6.922606 -1.139032 -5.598053 2.040503 2.229769 15.062741 0.000000 0.000000 0.000000 0.815140 -1.534124 16.262997 -6.228710 2.207605 5.706316 -7.484901 6.072183 2.281508 8.746133 -1.494253 -18.543866 0.000000 0.000000 0.000000 -32.548678 -33.085541 9.923706 -32.307398 -16.026693 3.107145 -6.864873 -63.761461 3.623512 0.000000 0.000000 0.000000 16.923591 25.561075 18.024017 41.018175 35.388003 7.253187 -9.979127 58.942755 -0.405890 0.000000 0.000000 0.000000 
-0.054629 0.937834 -0.064051 -2.997766 28.760042 3.235588 5.584074 -0.780551 -8.177073 0.472428 0.012530 -1.746047 -0.923442 4.150443 8.219144 0.000000 0.000000 0.000000 -4.074968 0.264401 -7.494505 6.853444 -1.125740 -5.955271 2.102175 2.344801 14.944191 0.000000 0.000000 0.000000 0.979033 -1.562259 16.304831 -6.269028 2.245532 5.589376 -7.213836 6.201487 2.260779 9.088347 -1.710437 -18.471106 0.000000 0.000000 0.000000 -32.778283 -32.281868 9.276971 -31.743865 -14.567162 2.732669 -9.885886 -64.567953 5.617119 0.000000 0.000000 0.000000 17.428297 25.219558 18.035714 41.884610 34.601418 7.114310 -7.000898 61.052396 1.414841 0.000000 0.000000 0.000000 
-0.054508 0.937761 -0.064604 -2.859138 28.611969 3.314154 5.333388 -0.770302 -8.148656 0.637381 0.008630 -1.818920 -0.877550 4.241436 8.253248 0.000000 0.000000 0.000000 -4.145856 0.261408 -7.579400 6.708657 -1.101925 -5.906816 2.153227 2.428566 14.888819 0.000000 0.000000 0.000000 1.052515 -1.530267 16.028278 -6.142425 2.201391 5.454361 -7.083675 6.345157 2.420976 9.256840 -1.745728 -18.711679 0.000000 0.000000 0.000000 -32.763492 -31.961640 8.984202 -31.428768 -13.719318 2.506358 -11.361908 -64.671971 6.588685 0.000000 0.000000 0.000000 18.205752 24.669532 18.082273 42.355271 33.667132 6.739972 -4.116558 62.783840 3.335920 0.000000 0.000000 0.000000 
-0.054669 0.937697 -0.065286 -2.923870 28.414019 3.449291 5.271627 -0.780875 -8.334887 0.855958 0.000192 -1.819317 -0.780333 4.404403 8.270395 0.000000 0.000000 0.000000 -4.074192 0.282868 -7.806864 6.678901 -1.093003 -5.949164 2.239261 2.541970 14.992487 0.000000 0.000000 0.000000 1.324380 -1.555711 15.904470 -5.938996 2.118388 5.334736 -7.061664 6.243367 2.298444 9.854793 -2.008066 -19.142910 0.000000 0.000000 0.000000 -32.782016 -31.517385 8.740501 -30.803725 -13.173416 2.314146 -13.673294 -64.456864 8.133757 0.000000 0.000000 0.000000 18.705036 24.297244 18.047002 42.790707 32.822875 6.452276 0.217382 64.247291 6.212215 0.000000 0.000000 0.000000 
